<?xml version="1.0" encoding="utf-8" standalone="no"?>
<!DOCTYPE svg PUBLIC "-//W3C//DTD SVG 1.1//EN"
  "http://www.w3.org/Graphics/SVG/1.1/DTD/svg11.dtd">
<!-- Created with matplotlib (https://matplotlib.org/) -->
<svg height="288pt" version="1.1" viewBox="0 0 432 288" width="432pt" xmlns="http://www.w3.org/2000/svg" xmlns:xlink="http://www.w3.org/1999/xlink">
 <defs>
  <style type="text/css">
*{stroke-linecap:butt;stroke-linejoin:round;}
  </style>
 </defs>
 <g id="figure_1">
  <g id="patch_1">
   <path d="M 0 288 
L 432 288 
L 432 0 
L 0 0 
z
" style="fill:#ffffff;"/>
  </g>
  <g id="axes_1">
   <g id="patch_2">
    <path d="M 54 252 
L 388.8 252 
L 388.8 34.56 
L 54 34.56 
z
" style="fill:#ffffff;"/>
   </g>
   <g id="matplotlib.axis_1">
    <g id="xtick_1">
     <g id="line2d_1">
      <defs>
       <path d="M 0 0 
L 0 3.5 
" id="ma7f3069558" style="stroke:#000000;stroke-width:0.8;"/>
      </defs>
      <g>
       <use style="stroke:#000000;stroke-width:0.8;" x="54" xlink:href="#ma7f3069558" y="252"/>
      </g>
     </g>
    </g>
    <g id="xtick_2">
     <g id="line2d_2">
      <g>
       <use style="stroke:#000000;stroke-width:0.8;" x="81.632246" xlink:href="#ma7f3069558" y="252"/>
      </g>
     </g>
     <g id="text_1">
      <!-- Oct -->
      <defs>
       <path d="M 39.40625 66.21875 
Q 28.65625 66.21875 22.328125 58.203125 
Q 16.015625 50.203125 16.015625 36.375 
Q 16.015625 22.609375 22.328125 14.59375 
Q 28.65625 6.59375 39.40625 6.59375 
Q 50.140625 6.59375 56.421875 14.59375 
Q 62.703125 22.609375 62.703125 36.375 
Q 62.703125 50.203125 56.421875 58.203125 
Q 50.140625 66.21875 39.40625 66.21875 
z
M 39.40625 74.21875 
Q 54.734375 74.21875 63.90625 63.9375 
Q 73.09375 53.65625 73.09375 36.375 
Q 73.09375 19.140625 63.90625 8.859375 
Q 54.734375 -1.421875 39.40625 -1.421875 
Q 24.03125 -1.421875 14.8125 8.828125 
Q 5.609375 19.09375 5.609375 36.375 
Q 5.609375 53.65625 14.8125 63.9375 
Q 24.03125 74.21875 39.40625 74.21875 
z
" id="DejaVuSans-79"/>
       <path d="M 48.78125 52.59375 
L 48.78125 44.1875 
Q 44.96875 46.296875 41.140625 47.34375 
Q 37.3125 48.390625 33.40625 48.390625 
Q 24.65625 48.390625 19.8125 42.84375 
Q 14.984375 37.3125 14.984375 27.296875 
Q 14.984375 17.28125 19.8125 11.734375 
Q 24.65625 6.203125 33.40625 6.203125 
Q 37.3125 6.203125 41.140625 7.25 
Q 44.96875 8.296875 48.78125 10.40625 
L 48.78125 2.09375 
Q 45.015625 0.34375 40.984375 -0.53125 
Q 36.96875 -1.421875 32.421875 -1.421875 
Q 20.0625 -1.421875 12.78125 6.34375 
Q 5.515625 14.109375 5.515625 27.296875 
Q 5.515625 40.671875 12.859375 48.328125 
Q 20.21875 56 33.015625 56 
Q 37.15625 56 41.109375 55.140625 
Q 45.0625 54.296875 48.78125 52.59375 
z
" id="DejaVuSans-99"/>
       <path d="M 18.3125 70.21875 
L 18.3125 54.6875 
L 36.8125 54.6875 
L 36.8125 47.703125 
L 18.3125 47.703125 
L 18.3125 18.015625 
Q 18.3125 11.328125 20.140625 9.421875 
Q 21.96875 7.515625 27.59375 7.515625 
L 36.8125 7.515625 
L 36.8125 0 
L 27.59375 0 
Q 17.1875 0 13.234375 3.875 
Q 9.28125 7.765625 9.28125 18.015625 
L 9.28125 47.703125 
L 2.6875 47.703125 
L 2.6875 54.6875 
L 9.28125 54.6875 
L 9.28125 70.21875 
z
" id="DejaVuSans-116"/>
      </defs>
      <g transform="translate(72.986933 266.598437)scale(0.1 -0.1)">
       <use xlink:href="#DejaVuSans-79"/>
       <use x="78.710938" xlink:href="#DejaVuSans-99"/>
       <use x="133.691406" xlink:href="#DejaVuSans-116"/>
      </g>
     </g>
    </g>
    <g id="xtick_3">
     <g id="line2d_3">
      <g>
       <use style="stroke:#000000;stroke-width:0.8;" x="123.401919" xlink:href="#ma7f3069558" y="252"/>
      </g>
     </g>
     <g id="text_2">
      <!-- Jan -->
      <defs>
       <path d="M 9.8125 72.90625 
L 19.671875 72.90625 
L 19.671875 5.078125 
Q 19.671875 -8.109375 14.671875 -14.0625 
Q 9.671875 -20.015625 -1.421875 -20.015625 
L -5.171875 -20.015625 
L -5.171875 -11.71875 
L -2.09375 -11.71875 
Q 4.4375 -11.71875 7.125 -8.046875 
Q 9.8125 -4.390625 9.8125 5.078125 
z
" id="DejaVuSans-74"/>
       <path d="M 34.28125 27.484375 
Q 23.390625 27.484375 19.1875 25 
Q 14.984375 22.515625 14.984375 16.5 
Q 14.984375 11.71875 18.140625 8.90625 
Q 21.296875 6.109375 26.703125 6.109375 
Q 34.1875 6.109375 38.703125 11.40625 
Q 43.21875 16.703125 43.21875 25.484375 
L 43.21875 27.484375 
z
M 52.203125 31.203125 
L 52.203125 0 
L 43.21875 0 
L 43.21875 8.296875 
Q 40.140625 3.328125 35.546875 0.953125 
Q 30.953125 -1.421875 24.3125 -1.421875 
Q 15.921875 -1.421875 10.953125 3.296875 
Q 6 8.015625 6 15.921875 
Q 6 25.140625 12.171875 29.828125 
Q 18.359375 34.515625 30.609375 34.515625 
L 43.21875 34.515625 
L 43.21875 35.40625 
Q 43.21875 41.609375 39.140625 45 
Q 35.0625 48.390625 27.6875 48.390625 
Q 23 48.390625 18.546875 47.265625 
Q 14.109375 46.140625 10.015625 43.890625 
L 10.015625 52.203125 
Q 14.9375 54.109375 19.578125 55.046875 
Q 24.21875 56 28.609375 56 
Q 40.484375 56 46.34375 49.84375 
Q 52.203125 43.703125 52.203125 31.203125 
z
" id="DejaVuSans-97"/>
       <path d="M 54.890625 33.015625 
L 54.890625 0 
L 45.90625 0 
L 45.90625 32.71875 
Q 45.90625 40.484375 42.875 44.328125 
Q 39.84375 48.1875 33.796875 48.1875 
Q 26.515625 48.1875 22.3125 43.546875 
Q 18.109375 38.921875 18.109375 30.90625 
L 18.109375 0 
L 9.078125 0 
L 9.078125 54.6875 
L 18.109375 54.6875 
L 18.109375 46.1875 
Q 21.34375 51.125 25.703125 53.5625 
Q 30.078125 56 35.796875 56 
Q 45.21875 56 50.046875 50.171875 
Q 54.890625 44.34375 54.890625 33.015625 
z
" id="DejaVuSans-110"/>
      </defs>
      <g transform="translate(115.694107 266.598437)scale(0.1 -0.1)">
       <use xlink:href="#DejaVuSans-74"/>
       <use x="29.492188" xlink:href="#DejaVuSans-97"/>
       <use x="90.771484" xlink:href="#DejaVuSans-110"/>
      </g>
      <!-- 2018 -->
      <defs>
       <path d="M 19.1875 8.296875 
L 53.609375 8.296875 
L 53.609375 0 
L 7.328125 0 
L 7.328125 8.296875 
Q 12.9375 14.109375 22.625 23.890625 
Q 32.328125 33.6875 34.8125 36.53125 
Q 39.546875 41.84375 41.421875 45.53125 
Q 43.3125 49.21875 43.3125 52.78125 
Q 43.3125 58.59375 39.234375 62.25 
Q 35.15625 65.921875 28.609375 65.921875 
Q 23.96875 65.921875 18.8125 64.3125 
Q 13.671875 62.703125 7.8125 59.421875 
L 7.8125 69.390625 
Q 13.765625 71.78125 18.9375 73 
Q 24.125 74.21875 28.421875 74.21875 
Q 39.75 74.21875 46.484375 68.546875 
Q 53.21875 62.890625 53.21875 53.421875 
Q 53.21875 48.921875 51.53125 44.890625 
Q 49.859375 40.875 45.40625 35.40625 
Q 44.1875 33.984375 37.640625 27.21875 
Q 31.109375 20.453125 19.1875 8.296875 
z
" id="DejaVuSans-50"/>
       <path d="M 31.78125 66.40625 
Q 24.171875 66.40625 20.328125 58.90625 
Q 16.5 51.421875 16.5 36.375 
Q 16.5 21.390625 20.328125 13.890625 
Q 24.171875 6.390625 31.78125 6.390625 
Q 39.453125 6.390625 43.28125 13.890625 
Q 47.125 21.390625 47.125 36.375 
Q 47.125 51.421875 43.28125 58.90625 
Q 39.453125 66.40625 31.78125 66.40625 
z
M 31.78125 74.21875 
Q 44.046875 74.21875 50.515625 64.515625 
Q 56.984375 54.828125 56.984375 36.375 
Q 56.984375 17.96875 50.515625 8.265625 
Q 44.046875 -1.421875 31.78125 -1.421875 
Q 19.53125 -1.421875 13.0625 8.265625 
Q 6.59375 17.96875 6.59375 36.375 
Q 6.59375 54.828125 13.0625 64.515625 
Q 19.53125 74.21875 31.78125 74.21875 
z
" id="DejaVuSans-48"/>
       <path d="M 12.40625 8.296875 
L 28.515625 8.296875 
L 28.515625 63.921875 
L 10.984375 60.40625 
L 10.984375 69.390625 
L 28.421875 72.90625 
L 38.28125 72.90625 
L 38.28125 8.296875 
L 54.390625 8.296875 
L 54.390625 0 
L 12.40625 0 
z
" id="DejaVuSans-49"/>
       <path d="M 31.78125 34.625 
Q 24.75 34.625 20.71875 30.859375 
Q 16.703125 27.09375 16.703125 20.515625 
Q 16.703125 13.921875 20.71875 10.15625 
Q 24.75 6.390625 31.78125 6.390625 
Q 38.8125 6.390625 42.859375 10.171875 
Q 46.921875 13.96875 46.921875 20.515625 
Q 46.921875 27.09375 42.890625 30.859375 
Q 38.875 34.625 31.78125 34.625 
z
M 21.921875 38.8125 
Q 15.578125 40.375 12.03125 44.71875 
Q 8.5 49.078125 8.5 55.328125 
Q 8.5 64.0625 14.71875 69.140625 
Q 20.953125 74.21875 31.78125 74.21875 
Q 42.671875 74.21875 48.875 69.140625 
Q 55.078125 64.0625 55.078125 55.328125 
Q 55.078125 49.078125 51.53125 44.71875 
Q 48 40.375 41.703125 38.8125 
Q 48.828125 37.15625 52.796875 32.3125 
Q 56.78125 27.484375 56.78125 20.515625 
Q 56.78125 9.90625 50.3125 4.234375 
Q 43.84375 -1.421875 31.78125 -1.421875 
Q 19.734375 -1.421875 13.25 4.234375 
Q 6.78125 9.90625 6.78125 20.515625 
Q 6.78125 27.484375 10.78125 32.3125 
Q 14.796875 37.15625 21.921875 38.8125 
z
M 18.3125 54.390625 
Q 18.3125 48.734375 21.84375 45.5625 
Q 25.390625 42.390625 31.78125 42.390625 
Q 38.140625 42.390625 41.71875 45.5625 
Q 45.3125 48.734375 45.3125 54.390625 
Q 45.3125 60.0625 41.71875 63.234375 
Q 38.140625 66.40625 31.78125 66.40625 
Q 25.390625 66.40625 21.84375 63.234375 
Q 18.3125 60.0625 18.3125 54.390625 
z
" id="DejaVuSans-56"/>
      </defs>
      <g transform="translate(110.676919 277.79625)scale(0.1 -0.1)">
       <use xlink:href="#DejaVuSans-50"/>
       <use x="63.623047" xlink:href="#DejaVuSans-48"/>
       <use x="127.246094" xlink:href="#DejaVuSans-49"/>
       <use x="190.869141" xlink:href="#DejaVuSans-56"/>
      </g>
     </g>
    </g>
    <g id="xtick_4">
     <g id="line2d_4">
      <g>
       <use style="stroke:#000000;stroke-width:0.8;" x="165.171593" xlink:href="#ma7f3069558" y="252"/>
      </g>
     </g>
     <g id="text_3">
      <!-- Apr -->
      <defs>
       <path d="M 34.1875 63.1875 
L 20.796875 26.90625 
L 47.609375 26.90625 
z
M 28.609375 72.90625 
L 39.796875 72.90625 
L 67.578125 0 
L 57.328125 0 
L 50.6875 18.703125 
L 17.828125 18.703125 
L 11.1875 0 
L 0.78125 0 
z
" id="DejaVuSans-65"/>
       <path d="M 18.109375 8.203125 
L 18.109375 -20.796875 
L 9.078125 -20.796875 
L 9.078125 54.6875 
L 18.109375 54.6875 
L 18.109375 46.390625 
Q 20.953125 51.265625 25.265625 53.625 
Q 29.59375 56 35.59375 56 
Q 45.5625 56 51.78125 48.09375 
Q 58.015625 40.1875 58.015625 27.296875 
Q 58.015625 14.40625 51.78125 6.484375 
Q 45.5625 -1.421875 35.59375 -1.421875 
Q 29.59375 -1.421875 25.265625 0.953125 
Q 20.953125 3.328125 18.109375 8.203125 
z
M 48.6875 27.296875 
Q 48.6875 37.203125 44.609375 42.84375 
Q 40.53125 48.484375 33.40625 48.484375 
Q 26.265625 48.484375 22.1875 42.84375 
Q 18.109375 37.203125 18.109375 27.296875 
Q 18.109375 17.390625 22.1875 11.75 
Q 26.265625 6.109375 33.40625 6.109375 
Q 40.53125 6.109375 44.609375 11.75 
Q 48.6875 17.390625 48.6875 27.296875 
z
" id="DejaVuSans-112"/>
       <path d="M 41.109375 46.296875 
Q 39.59375 47.171875 37.8125 47.578125 
Q 36.03125 48 33.890625 48 
Q 26.265625 48 22.1875 43.046875 
Q 18.109375 38.09375 18.109375 28.8125 
L 18.109375 0 
L 9.078125 0 
L 9.078125 54.6875 
L 18.109375 54.6875 
L 18.109375 46.1875 
Q 20.953125 51.171875 25.484375 53.578125 
Q 30.03125 56 36.53125 56 
Q 37.453125 56 38.578125 55.875 
Q 39.703125 55.765625 41.0625 55.515625 
z
" id="DejaVuSans-114"/>
      </defs>
      <g transform="translate(156.521593 266.598437)scale(0.1 -0.1)">
       <use xlink:href="#DejaVuSans-65"/>
       <use x="68.408203" xlink:href="#DejaVuSans-112"/>
       <use x="131.884766" xlink:href="#DejaVuSans-114"/>
      </g>
     </g>
    </g>
    <g id="xtick_5">
     <g id="line2d_5">
      <g>
       <use style="stroke:#000000;stroke-width:0.8;" x="206.941267" xlink:href="#ma7f3069558" y="252"/>
      </g>
     </g>
     <g id="text_4">
      <!-- Jul -->
      <defs>
       <path d="M 8.5 21.578125 
L 8.5 54.6875 
L 17.484375 54.6875 
L 17.484375 21.921875 
Q 17.484375 14.15625 20.5 10.265625 
Q 23.53125 6.390625 29.59375 6.390625 
Q 36.859375 6.390625 41.078125 11.03125 
Q 45.3125 15.671875 45.3125 23.6875 
L 45.3125 54.6875 
L 54.296875 54.6875 
L 54.296875 0 
L 45.3125 0 
L 45.3125 8.40625 
Q 42.046875 3.421875 37.71875 1 
Q 33.40625 -1.421875 27.6875 -1.421875 
Q 18.265625 -1.421875 13.375 4.4375 
Q 8.5 10.296875 8.5 21.578125 
z
M 31.109375 56 
z
" id="DejaVuSans-117"/>
       <path d="M 9.421875 75.984375 
L 18.40625 75.984375 
L 18.40625 0 
L 9.421875 0 
z
" id="DejaVuSans-108"/>
      </defs>
      <g transform="translate(200.908454 266.598437)scale(0.1 -0.1)">
       <use xlink:href="#DejaVuSans-74"/>
       <use x="29.492188" xlink:href="#DejaVuSans-117"/>
       <use x="92.871094" xlink:href="#DejaVuSans-108"/>
      </g>
     </g>
    </g>
    <g id="xtick_6">
     <g id="line2d_6">
      <g>
       <use style="stroke:#000000;stroke-width:0.8;" x="248.71094" xlink:href="#ma7f3069558" y="252"/>
      </g>
     </g>
     <g id="text_5">
      <!-- Oct -->
      <g transform="translate(240.065628 266.598437)scale(0.1 -0.1)">
       <use xlink:href="#DejaVuSans-79"/>
       <use x="78.710938" xlink:href="#DejaVuSans-99"/>
       <use x="133.691406" xlink:href="#DejaVuSans-116"/>
      </g>
     </g>
    </g>
    <g id="xtick_7">
     <g id="line2d_7">
      <g>
       <use style="stroke:#000000;stroke-width:0.8;" x="291.123225" xlink:href="#ma7f3069558" y="252"/>
      </g>
     </g>
     <g id="text_6">
      <!-- Jan -->
      <g transform="translate(283.415412 266.598437)scale(0.1 -0.1)">
       <use xlink:href="#DejaVuSans-74"/>
       <use x="29.492188" xlink:href="#DejaVuSans-97"/>
       <use x="90.771484" xlink:href="#DejaVuSans-110"/>
      </g>
      <!-- 2019 -->
      <defs>
       <path d="M 10.984375 1.515625 
L 10.984375 10.5 
Q 14.703125 8.734375 18.5 7.8125 
Q 22.3125 6.890625 25.984375 6.890625 
Q 35.75 6.890625 40.890625 13.453125 
Q 46.046875 20.015625 46.78125 33.40625 
Q 43.953125 29.203125 39.59375 26.953125 
Q 35.25 24.703125 29.984375 24.703125 
Q 19.046875 24.703125 12.671875 31.3125 
Q 6.296875 37.9375 6.296875 49.421875 
Q 6.296875 60.640625 12.9375 67.421875 
Q 19.578125 74.21875 30.609375 74.21875 
Q 43.265625 74.21875 49.921875 64.515625 
Q 56.59375 54.828125 56.59375 36.375 
Q 56.59375 19.140625 48.40625 8.859375 
Q 40.234375 -1.421875 26.421875 -1.421875 
Q 22.703125 -1.421875 18.890625 -0.6875 
Q 15.09375 0.046875 10.984375 1.515625 
z
M 30.609375 32.421875 
Q 37.25 32.421875 41.125 36.953125 
Q 45.015625 41.5 45.015625 49.421875 
Q 45.015625 57.28125 41.125 61.84375 
Q 37.25 66.40625 30.609375 66.40625 
Q 23.96875 66.40625 20.09375 61.84375 
Q 16.21875 57.28125 16.21875 49.421875 
Q 16.21875 41.5 20.09375 36.953125 
Q 23.96875 32.421875 30.609375 32.421875 
z
" id="DejaVuSans-57"/>
      </defs>
      <g transform="translate(278.398225 277.79625)scale(0.1 -0.1)">
       <use xlink:href="#DejaVuSans-50"/>
       <use x="63.623047" xlink:href="#DejaVuSans-48"/>
       <use x="127.246094" xlink:href="#DejaVuSans-49"/>
       <use x="190.869141" xlink:href="#DejaVuSans-57"/>
      </g>
     </g>
    </g>
    <g id="xtick_8">
     <g id="line2d_8">
      <g>
       <use style="stroke:#000000;stroke-width:0.8;" x="332.250288" xlink:href="#ma7f3069558" y="252"/>
      </g>
     </g>
     <g id="text_7">
      <!-- Apr -->
      <g transform="translate(323.600288 266.598437)scale(0.1 -0.1)">
       <use xlink:href="#DejaVuSans-65"/>
       <use x="68.408203" xlink:href="#DejaVuSans-112"/>
       <use x="131.884766" xlink:href="#DejaVuSans-114"/>
      </g>
     </g>
    </g>
    <g id="xtick_9">
     <g id="line2d_9">
      <g>
       <use style="stroke:#000000;stroke-width:0.8;" x="374.019962" xlink:href="#ma7f3069558" y="252"/>
      </g>
     </g>
     <g id="text_8">
      <!-- Jul -->
      <g transform="translate(367.987149 266.598437)scale(0.1 -0.1)">
       <use xlink:href="#DejaVuSans-74"/>
       <use x="29.492188" xlink:href="#DejaVuSans-117"/>
       <use x="92.871094" xlink:href="#DejaVuSans-108"/>
      </g>
     </g>
    </g>
    <g id="xtick_10">
     <g id="line2d_10">
      <g>
       <use style="stroke:#000000;stroke-width:0.8;" x="388.8" xlink:href="#ma7f3069558" y="252"/>
      </g>
     </g>
    </g>
    <g id="xtick_11">
     <g id="line2d_11">
      <defs>
       <path d="M 0 0 
L 0 2 
" id="mb40c32e063" style="stroke:#000000;stroke-width:0.6;"/>
      </defs>
      <g>
       <use style="stroke:#000000;stroke-width:0.6;" x="68.137428" xlink:href="#mb40c32e063" y="252"/>
      </g>
     </g>
    </g>
    <g id="xtick_12">
     <g id="line2d_12">
      <g>
       <use style="stroke:#000000;stroke-width:0.6;" x="81.632246" xlink:href="#mb40c32e063" y="252"/>
      </g>
     </g>
    </g>
    <g id="xtick_13">
     <g id="line2d_13">
      <g>
       <use style="stroke:#000000;stroke-width:0.6;" x="95.769674" xlink:href="#mb40c32e063" y="252"/>
      </g>
     </g>
    </g>
    <g id="xtick_14">
     <g id="line2d_14">
      <g>
       <use style="stroke:#000000;stroke-width:0.6;" x="109.907102" xlink:href="#mb40c32e063" y="252"/>
      </g>
     </g>
    </g>
    <g id="xtick_15">
     <g id="line2d_15">
      <g>
       <use style="stroke:#000000;stroke-width:0.6;" x="123.401919" xlink:href="#mb40c32e063" y="252"/>
      </g>
     </g>
    </g>
    <g id="xtick_16">
     <g id="line2d_16">
      <g>
       <use style="stroke:#000000;stroke-width:0.6;" x="138.181958" xlink:href="#mb40c32e063" y="252"/>
      </g>
     </g>
    </g>
    <g id="xtick_17">
     <g id="line2d_17">
      <g>
       <use style="stroke:#000000;stroke-width:0.6;" x="151.034165" xlink:href="#mb40c32e063" y="252"/>
      </g>
     </g>
    </g>
    <g id="xtick_18">
     <g id="line2d_18">
      <g>
       <use style="stroke:#000000;stroke-width:0.6;" x="165.171593" xlink:href="#mb40c32e063" y="252"/>
      </g>
     </g>
    </g>
    <g id="xtick_19">
     <g id="line2d_19">
      <g>
       <use style="stroke:#000000;stroke-width:0.6;" x="178.666411" xlink:href="#mb40c32e063" y="252"/>
      </g>
     </g>
    </g>
    <g id="xtick_20">
     <g id="line2d_20">
      <g>
       <use style="stroke:#000000;stroke-width:0.6;" x="193.446449" xlink:href="#mb40c32e063" y="252"/>
      </g>
     </g>
    </g>
    <g id="xtick_21">
     <g id="line2d_21">
      <g>
       <use style="stroke:#000000;stroke-width:0.6;" x="206.941267" xlink:href="#mb40c32e063" y="252"/>
      </g>
     </g>
    </g>
    <g id="xtick_22">
     <g id="line2d_22">
      <g>
       <use style="stroke:#000000;stroke-width:0.6;" x="221.078695" xlink:href="#mb40c32e063" y="252"/>
      </g>
     </g>
    </g>
    <g id="xtick_23">
     <g id="line2d_23">
      <g>
       <use style="stroke:#000000;stroke-width:0.6;" x="235.858733" xlink:href="#mb40c32e063" y="252"/>
      </g>
     </g>
    </g>
    <g id="xtick_24">
     <g id="line2d_24">
      <g>
       <use style="stroke:#000000;stroke-width:0.6;" x="248.71094" xlink:href="#mb40c32e063" y="252"/>
      </g>
     </g>
    </g>
    <g id="xtick_25">
     <g id="line2d_25">
      <g>
       <use style="stroke:#000000;stroke-width:0.6;" x="263.490979" xlink:href="#mb40c32e063" y="252"/>
      </g>
     </g>
    </g>
    <g id="xtick_26">
     <g id="line2d_26">
      <g>
       <use style="stroke:#000000;stroke-width:0.6;" x="277.628407" xlink:href="#mb40c32e063" y="252"/>
      </g>
     </g>
    </g>
    <g id="xtick_27">
     <g id="line2d_27">
      <g>
       <use style="stroke:#000000;stroke-width:0.6;" x="291.123225" xlink:href="#mb40c32e063" y="252"/>
      </g>
     </g>
    </g>
    <g id="xtick_28">
     <g id="line2d_28">
      <g>
       <use style="stroke:#000000;stroke-width:0.6;" x="305.903263" xlink:href="#mb40c32e063" y="252"/>
      </g>
     </g>
    </g>
    <g id="xtick_29">
     <g id="line2d_29">
      <g>
       <use style="stroke:#000000;stroke-width:0.6;" x="318.75547" xlink:href="#mb40c32e063" y="252"/>
      </g>
     </g>
    </g>
    <g id="xtick_30">
     <g id="line2d_30">
      <g>
       <use style="stroke:#000000;stroke-width:0.6;" x="332.250288" xlink:href="#mb40c32e063" y="252"/>
      </g>
     </g>
    </g>
    <g id="xtick_31">
     <g id="line2d_31">
      <g>
       <use style="stroke:#000000;stroke-width:0.6;" x="346.387716" xlink:href="#mb40c32e063" y="252"/>
      </g>
     </g>
    </g>
    <g id="xtick_32">
     <g id="line2d_32">
      <g>
       <use style="stroke:#000000;stroke-width:0.6;" x="361.167754" xlink:href="#mb40c32e063" y="252"/>
      </g>
     </g>
    </g>
    <g id="xtick_33">
     <g id="line2d_33">
      <g>
       <use style="stroke:#000000;stroke-width:0.6;" x="374.019962" xlink:href="#mb40c32e063" y="252"/>
      </g>
     </g>
    </g>
    <g id="xtick_34">
     <g id="line2d_34">
      <g>
       <use style="stroke:#000000;stroke-width:0.6;" x="388.8" xlink:href="#mb40c32e063" y="252"/>
      </g>
     </g>
    </g>
    <g id="text_9">
     <!-- Date -->
     <defs>
      <path d="M 19.671875 64.796875 
L 19.671875 8.109375 
L 31.59375 8.109375 
Q 46.6875 8.109375 53.6875 14.9375 
Q 60.6875 21.78125 60.6875 36.53125 
Q 60.6875 51.171875 53.6875 57.984375 
Q 46.6875 64.796875 31.59375 64.796875 
z
M 9.8125 72.90625 
L 30.078125 72.90625 
Q 51.265625 72.90625 61.171875 64.09375 
Q 71.09375 55.28125 71.09375 36.53125 
Q 71.09375 17.671875 61.125 8.828125 
Q 51.171875 0 30.078125 0 
L 9.8125 0 
z
" id="DejaVuSans-68"/>
      <path d="M 56.203125 29.59375 
L 56.203125 25.203125 
L 14.890625 25.203125 
Q 15.484375 15.921875 20.484375 11.0625 
Q 25.484375 6.203125 34.421875 6.203125 
Q 39.59375 6.203125 44.453125 7.46875 
Q 49.3125 8.734375 54.109375 11.28125 
L 54.109375 2.78125 
Q 49.265625 0.734375 44.1875 -0.34375 
Q 39.109375 -1.421875 33.890625 -1.421875 
Q 20.796875 -1.421875 13.15625 6.1875 
Q 5.515625 13.8125 5.515625 26.8125 
Q 5.515625 40.234375 12.765625 48.109375 
Q 20.015625 56 32.328125 56 
Q 43.359375 56 49.78125 48.890625 
Q 56.203125 41.796875 56.203125 29.59375 
z
M 47.21875 32.234375 
Q 47.125 39.59375 43.09375 43.984375 
Q 39.0625 48.390625 32.421875 48.390625 
Q 24.90625 48.390625 20.390625 44.140625 
Q 15.875 39.890625 15.1875 32.171875 
z
" id="DejaVuSans-101"/>
     </defs>
     <g transform="translate(209.449219 291.474375)scale(0.1 -0.1)">
      <use xlink:href="#DejaVuSans-68"/>
      <use x="77.001953" xlink:href="#DejaVuSans-97"/>
      <use x="138.28125" xlink:href="#DejaVuSans-116"/>
      <use x="177.490234" xlink:href="#DejaVuSans-101"/>
     </g>
    </g>
   </g>
   <g id="matplotlib.axis_2">
    <g id="ytick_1">
     <g id="line2d_35">
      <defs>
       <path d="M 0 0 
L -3.5 0 
" id="me54c34a537" style="stroke:#000000;stroke-width:0.8;"/>
      </defs>
      <g>
       <use style="stroke:#000000;stroke-width:0.8;" x="54" xlink:href="#me54c34a537" y="226.751738"/>
      </g>
     </g>
     <g id="text_10">
      <!-- 1000 -->
      <g transform="translate(21.55 230.550956)scale(0.1 -0.1)">
       <use xlink:href="#DejaVuSans-49"/>
       <use x="63.623047" xlink:href="#DejaVuSans-48"/>
       <use x="127.246094" xlink:href="#DejaVuSans-48"/>
       <use x="190.869141" xlink:href="#DejaVuSans-48"/>
      </g>
     </g>
    </g>
    <g id="ytick_2">
     <g id="line2d_36">
      <g>
       <use style="stroke:#000000;stroke-width:0.8;" x="54" xlink:href="#me54c34a537" y="199.902238"/>
      </g>
     </g>
     <g id="text_11">
      <!-- 1200 -->
      <g transform="translate(21.55 203.701457)scale(0.1 -0.1)">
       <use xlink:href="#DejaVuSans-49"/>
       <use x="63.623047" xlink:href="#DejaVuSans-50"/>
       <use x="127.246094" xlink:href="#DejaVuSans-48"/>
       <use x="190.869141" xlink:href="#DejaVuSans-48"/>
      </g>
     </g>
    </g>
    <g id="ytick_3">
     <g id="line2d_37">
      <g>
       <use style="stroke:#000000;stroke-width:0.8;" x="54" xlink:href="#me54c34a537" y="173.052739"/>
      </g>
     </g>
     <g id="text_12">
      <!-- 1400 -->
      <defs>
       <path d="M 37.796875 64.3125 
L 12.890625 25.390625 
L 37.796875 25.390625 
z
M 35.203125 72.90625 
L 47.609375 72.90625 
L 47.609375 25.390625 
L 58.015625 25.390625 
L 58.015625 17.1875 
L 47.609375 17.1875 
L 47.609375 0 
L 37.796875 0 
L 37.796875 17.1875 
L 4.890625 17.1875 
L 4.890625 26.703125 
z
" id="DejaVuSans-52"/>
      </defs>
      <g transform="translate(21.55 176.851957)scale(0.1 -0.1)">
       <use xlink:href="#DejaVuSans-49"/>
       <use x="63.623047" xlink:href="#DejaVuSans-52"/>
       <use x="127.246094" xlink:href="#DejaVuSans-48"/>
       <use x="190.869141" xlink:href="#DejaVuSans-48"/>
      </g>
     </g>
    </g>
    <g id="ytick_4">
     <g id="line2d_38">
      <g>
       <use style="stroke:#000000;stroke-width:0.8;" x="54" xlink:href="#me54c34a537" y="146.203239"/>
      </g>
     </g>
     <g id="text_13">
      <!-- 1600 -->
      <defs>
       <path d="M 33.015625 40.375 
Q 26.375 40.375 22.484375 35.828125 
Q 18.609375 31.296875 18.609375 23.390625 
Q 18.609375 15.53125 22.484375 10.953125 
Q 26.375 6.390625 33.015625 6.390625 
Q 39.65625 6.390625 43.53125 10.953125 
Q 47.40625 15.53125 47.40625 23.390625 
Q 47.40625 31.296875 43.53125 35.828125 
Q 39.65625 40.375 33.015625 40.375 
z
M 52.59375 71.296875 
L 52.59375 62.3125 
Q 48.875 64.0625 45.09375 64.984375 
Q 41.3125 65.921875 37.59375 65.921875 
Q 27.828125 65.921875 22.671875 59.328125 
Q 17.53125 52.734375 16.796875 39.40625 
Q 19.671875 43.65625 24.015625 45.921875 
Q 28.375 48.1875 33.59375 48.1875 
Q 44.578125 48.1875 50.953125 41.515625 
Q 57.328125 34.859375 57.328125 23.390625 
Q 57.328125 12.15625 50.6875 5.359375 
Q 44.046875 -1.421875 33.015625 -1.421875 
Q 20.359375 -1.421875 13.671875 8.265625 
Q 6.984375 17.96875 6.984375 36.375 
Q 6.984375 53.65625 15.1875 63.9375 
Q 23.390625 74.21875 37.203125 74.21875 
Q 40.921875 74.21875 44.703125 73.484375 
Q 48.484375 72.75 52.59375 71.296875 
z
" id="DejaVuSans-54"/>
      </defs>
      <g transform="translate(21.55 150.002458)scale(0.1 -0.1)">
       <use xlink:href="#DejaVuSans-49"/>
       <use x="63.623047" xlink:href="#DejaVuSans-54"/>
       <use x="127.246094" xlink:href="#DejaVuSans-48"/>
       <use x="190.869141" xlink:href="#DejaVuSans-48"/>
      </g>
     </g>
    </g>
    <g id="ytick_5">
     <g id="line2d_39">
      <g>
       <use style="stroke:#000000;stroke-width:0.8;" x="54" xlink:href="#me54c34a537" y="119.35374"/>
      </g>
     </g>
     <g id="text_14">
      <!-- 1800 -->
      <g transform="translate(21.55 123.152959)scale(0.1 -0.1)">
       <use xlink:href="#DejaVuSans-49"/>
       <use x="63.623047" xlink:href="#DejaVuSans-56"/>
       <use x="127.246094" xlink:href="#DejaVuSans-48"/>
       <use x="190.869141" xlink:href="#DejaVuSans-48"/>
      </g>
     </g>
    </g>
    <g id="ytick_6">
     <g id="line2d_40">
      <g>
       <use style="stroke:#000000;stroke-width:0.8;" x="54" xlink:href="#me54c34a537" y="92.50424"/>
      </g>
     </g>
     <g id="text_15">
      <!-- 2000 -->
      <g transform="translate(21.55 96.303459)scale(0.1 -0.1)">
       <use xlink:href="#DejaVuSans-50"/>
       <use x="63.623047" xlink:href="#DejaVuSans-48"/>
       <use x="127.246094" xlink:href="#DejaVuSans-48"/>
       <use x="190.869141" xlink:href="#DejaVuSans-48"/>
      </g>
     </g>
    </g>
    <g id="ytick_7">
     <g id="line2d_41">
      <g>
       <use style="stroke:#000000;stroke-width:0.8;" x="54" xlink:href="#me54c34a537" y="65.654741"/>
      </g>
     </g>
     <g id="text_16">
      <!-- 2200 -->
      <g transform="translate(21.55 69.45396)scale(0.1 -0.1)">
       <use xlink:href="#DejaVuSans-50"/>
       <use x="63.623047" xlink:href="#DejaVuSans-50"/>
       <use x="127.246094" xlink:href="#DejaVuSans-48"/>
       <use x="190.869141" xlink:href="#DejaVuSans-48"/>
      </g>
     </g>
    </g>
    <g id="ytick_8">
     <g id="line2d_42">
      <g>
       <use style="stroke:#000000;stroke-width:0.8;" x="54" xlink:href="#me54c34a537" y="38.805241"/>
      </g>
     </g>
     <g id="text_17">
      <!-- 2400 -->
      <g transform="translate(21.55 42.60446)scale(0.1 -0.1)">
       <use xlink:href="#DejaVuSans-50"/>
       <use x="63.623047" xlink:href="#DejaVuSans-52"/>
       <use x="127.246094" xlink:href="#DejaVuSans-48"/>
       <use x="190.869141" xlink:href="#DejaVuSans-48"/>
      </g>
     </g>
    </g>
   </g>
   <g id="line2d_43">
    <path clip-path="url(#p62ca4ad27d)" d="M 54 237.813731 
L 54.64261 238.880999 
L 55.285221 238.901136 
L 55.927831 238.26346 
L 56.570441 240.72019 
L 57.213052 239.491825 
L 57.855662 239.424701 
L 58.498273 240.15635 
L 59.140883 240.149638 
M 60.426104 238.995109 
L 61.068714 236.383996 
L 62.353935 240.773889 
L 62.996545 242.116364 
L 63.639155 240.263748 
L 64.281766 240.988685 
M 65.566987 240.136213 
L 66.209597 240.545668 
L 66.852207 238.706477 
L 67.494818 239.626073 
L 68.137428 239.236755 
L 68.780038 238.538668 
L 69.422649 238.54538 
L 70.707869 239.491825 
L 71.35048 236.383996 
L 71.99309 234.370283 
L 72.635701 229.745457 
L 73.278311 231.05437 
L 73.920921 231.685333 
L 74.563532 230.40327 
L 75.206142 229.987102 
L 76.491363 233.819868 
L 77.133973 235.088507 
L 77.776583 235.994678 
L 78.419194 237.692909 
L 79.061804 238.417845 
L 79.704415 239.699909 
L 80.347025 238.894424 
L 80.989635 238.525243 
M 82.274856 237.223042 
L 82.917466 234.101788 
L 83.560077 234.088363 
L 84.202687 233.558086 
L 84.845298 234.779738 
L 85.487908 233.497674 
L 86.130518 233.772882 
L 87.415739 233.276166 
L 88.70096 233.772882 
L 89.34357 228.745313 
L 89.98618 229.987102 
M 91.271401 231.05437 
L 91.914012 229.732032 
L 92.556622 227.631059 
L 93.199232 222.684038 
L 93.841843 220.267583 
L 94.484453 220.690463 
L 95.127063 219.871553 
L 96.412284 215.521934 
L 97.054894 217.690032 
L 97.697505 213.347125 
L 98.340115 202.916094 
L 98.982726 204.480078 
L 99.625336 197.029342 
L 100.267946 201.486359 
L 100.910557 203.023492 
L 101.553167 205.131178 
L 103.480998 202.969793 
L 104.123608 203.600757 
L 104.766219 201.419235 
L 105.408829 204.312268 
L 106.05144 204.795559 
L 106.69405 204.560626 
L 107.33666 207.238864 
L 107.979271 207.339549 
L 108.621881 206.628038 
L 109.907102 211.024643 
L 110.549712 211.568346 
L 111.192322 211.689168 
L 111.834933 211.534784 
L 112.477543 209.534496 
L 113.120154 206.359543 
L 113.762764 205.527208 
L 114.405374 209.74258 
L 115.047985 211.145466 
L 115.690595 211.031356 
L 116.333205 209.823128 
L 116.975816 210.440667 
L 117.618426 207.742292 
L 118.261036 204.533777 
L 118.903647 205.392961 
L 119.546257 207.131466 
M 120.831478 204.594188 
L 121.474088 204.480078 
L 122.116699 203.003355 
L 122.759309 204.312268 
L 123.401919 203.359111 
L 124.04453 201.54677 
L 124.68714 195.613031 
L 125.32975 195.472071 
L 125.972361 193.471783 
L 126.614971 197.78784 
L 127.257582 200.257994 
L 127.900192 201.728004 
L 129.185413 206.701874 
L 129.828023 202.748285 
L 130.470633 204.178021 
L 131.113244 206.245432 
L 131.755854 210.863546 
L 132.398464 210.823272 
L 133.041075 205.721867 
L 133.683685 205.460085 
L 134.326296 206.930095 
L 134.968906 206.527352 
M 136.254127 208.406817 
L 136.896737 210.454091 
L 138.181958 206.574339 
L 138.824568 215.119192 
L 139.467179 207.722155 
L 140.109789 220.012513 
L 140.752399 222.32157 
L 141.39501 221.650333 
L 142.03762 224.932684 
L 142.68023 220.187035 
M 143.965451 219.220453 
L 144.608061 220.690463 
L 145.893282 224.852135 
L 146.535893 223.11363 
L 147.178503 223.53651 
L 147.821113 221.146905 
L 148.463724 222.496092 
L 149.106334 224.194323 
L 149.748944 225.489811 
L 150.391555 223.496236 
L 151.034165 224.482955 
M 152.319386 226.892697 
L 152.961996 226.255022 
L 153.604607 231.289303 
L 154.247217 229.309152 
L 154.889827 228.886273 
L 155.532438 229.98039 
L 156.817658 231.524236 
L 157.460269 230.993958 
L 158.102879 231.712183 
L 159.3881 234.873711 
L 160.03071 233.813156 
L 160.673321 235.397276 
L 161.315931 235.712758 
L 161.958541 234.967684 
L 162.601152 232.416982 
L 163.243762 236.477969 
M 165.171593 234.893848 
L 165.814203 233.014383 
L 166.456814 233.591648 
L 167.099424 232.484106 
L 167.742035 230.624778 
L 168.384645 231.544373 
L 169.027255 228.060651 
L 169.669866 230.349571 
L 170.312476 229.987102 
L 170.955086 231.59136 
L 171.597697 232.651915 
L 172.240307 227.483386 
L 172.882917 223.751306 
L 173.525528 228.22846 
L 174.168138 228.530517 
L 174.810749 224.858848 
L 175.453359 224.637339 
L 176.095969 226.543654 
L 176.73858 226.624202 
L 177.38119 227.127631 
L 178.0238 220.797861 
M 179.309021 217.381262 
L 179.951631 217.273864 
L 180.594242 211.74958 
L 181.236852 209.74258 
L 181.879463 213.488085 
L 182.522073 206.936807 
L 183.164683 209.252576 
L 183.807294 212.0315 
L 184.449904 212.125473 
L 185.735125 205.916526 
L 186.377735 205.111041 
L 187.020345 209.151891 
L 187.662956 207.950376 
L 188.305566 207.292563 
L 188.948177 202.311981 
L 189.590787 202.580476 
L 190.233397 200.573476 
L 190.876008 201.868964 
L 191.518618 204.271994 
L 192.161228 196.733997 
L 192.803839 201.15074 
L 193.446449 200.164021 
L 194.08906 203.735004 
L 194.73167 210.031212 
L 195.37428 205.56077 
L 196.016891 203.345686 
L 196.659501 202.969793 
L 197.302111 183.698565 
L 197.944722 183.758977 
L 198.587332 187.061465 
L 199.229942 186.759408 
L 199.872553 185.242411 
L 200.515163 170.951765 
L 201.157774 167.99832 
L 202.442994 179.765114 
L 203.085605 163.084862 
L 203.728215 161.614852 
L 204.370825 170.535598 
L 205.013436 176.153856 
L 206.298656 170.441625 
L 206.941267 169.0723 
L 207.583877 167.098862 
L 209.511708 175.569879 
L 210.154319 172.57616 
L 210.796929 170.213404 
L 211.439539 171.132999 
L 212.08215 170.750394 
L 212.72476 171.938484 
L 213.36737 171.696839 
L 214.009981 172.811093 
L 214.652591 170.267103 
L 215.295202 168.28024 
L 215.937812 169.830799 
L 216.580422 167.736538 
L 217.223033 164.561584 
L 217.865643 156.385912 
L 218.508253 153.0163 
L 219.150864 158.419761 
L 219.793474 156.453036 
L 220.436084 155.513303 
L 221.078695 145.766935 
L 221.721305 146.485159 
L 222.363916 129.408877 
L 223.006526 134.194801 
L 223.649136 131.207794 
L 224.291747 127.019272 
L 224.934357 126.864887 
L 225.576967 124.072539 
L 226.862188 135.497001 
M 228.147409 131.670948 
L 228.790019 114.205348 
L 229.43263 111.493549 
L 230.07524 115.527686 
M 231.360461 118.414007 
L 232.003071 108.882435 
L 232.645681 109.526823 
L 233.288292 106.929134 
L 233.930902 107.721194 
L 234.573512 111.473412 
L 235.216123 107.103656 
L 235.858733 110.694776 
L 236.501344 119.561823 
L 237.143954 122.387733 
L 237.786564 113.205204 
L 238.429175 110.748475 
L 239.071785 116.125088 
L 240.357006 135.060697 
M 241.642226 126.817901 
L 242.284837 133.161095 
L 242.927447 136.027279 
L 243.570058 130.845326 
M 244.855278 129.590111 
L 245.497889 136.315911 
L 246.140499 138.141677 
L 246.783109 134.308911 
L 247.42572 134.852613 
L 248.06833 151.056286 
L 248.71094 149.109698 
M 249.996161 149.425179 
L 250.638772 154.251377 
L 251.281382 154.48631 
L 251.923992 151.814785 
L 252.566603 152.116842 
L 253.209213 140.148677 
L 253.851823 143.665962 
L 254.494434 137.483864 
L 255.137044 133.959868 
L 255.779655 133.5437 
L 256.422265 138.752503 
M 257.707486 134.282061 
L 258.350096 131.39574 
L 258.992706 135.423165 
L 259.635317 137.705373 
L 260.277927 134.295486 
L 260.920537 135.208369 
L 261.563148 132.926162 
L 262.205758 134.87275 
L 262.848369 130.778202 
L 263.490979 132.946299 
L 264.133589 135.731934 
L 264.7762 133.107396 
L 265.41881 133.107396 
L 266.06142 130.724503 
M 267.346641 132.812051 
L 267.989251 134.369322 
L 268.631862 133.167807 
L 269.274472 135.288918 
L 269.917083 134.060553 
L 270.559693 137.228794 
L 271.202303 139.443878 
L 271.844914 139.880182 
L 272.487524 147.411467 
L 273.130134 159.842785 
M 274.415355 175.26111 
L 275.057965 164.259528 
L 275.700576 162.185404 
L 276.985797 174.032745 
L 277.628407 177.979622 
L 278.271017 177.858799 
L 278.913628 179.926211 
L 279.556238 182.61116 
L 280.198848 178.778394 
L 280.841459 183.490482 
L 282.76929 171.891498 
L 283.4119 173.032602 
L 284.054511 173.019177 
L 284.697121 166.494748 
L 286.624952 161.292658 
L 287.267562 163.61514 
M 288.552783 162.984176 
L 289.195393 159.044012 
L 289.838004 163.621852 
L 290.480614 166.125568 
L 291.123225 167.199548 
L 291.765835 170.535598 
L 292.408445 170.96519 
L 293.051056 164.12528 
L 293.693666 163.863498 
L 294.336276 165.08515 
L 294.978887 162.849929 
L 295.621497 149.79436 
L 296.264107 139.866757 
L 296.906718 145.572276 
L 297.549328 140.981012 
L 298.191939 139.121684 
L 299.477159 146.162965 
L 300.11977 144.021717 
L 300.76238 144.786928 
L 301.40499 139.074697 
L 302.047601 144.545283 
L 302.690211 146.183102 
L 303.332821 146.00858 
L 303.975432 146.102554 
L 305.260653 145.975019 
L 305.903263 138.960587 
L 306.545873 146.250226 
L 307.188484 147.606126 
L 307.831094 145.062136 
L 308.473704 120.065252 
L 309.116315 118.105238 
L 309.758925 114.326171 
L 310.401536 117.568248 
L 311.044146 115.494124 
L 311.686756 115.326315 
L 312.329367 122.367596 
L 312.971977 127.093108 
L 313.614587 126.56283 
L 314.257198 123.475138 
L 314.899808 111.614372 
L 315.542418 109.016683 
L 316.185029 109.96984 
L 316.827639 111.923141 
L 317.47025 98.887709 
L 318.11286 88.691611 
L 318.75547 94.860284 
M 320.040691 83.026367 
L 320.683301 83.335136 
L 321.325912 95.672481 
L 321.968522 94.464254 
L 322.611132 94.712612 
L 323.253743 101.176629 
L 323.896353 101.619645 
L 324.538964 91.779304 
L 325.181574 96.424267 
L 325.824184 99.780455 
L 326.466795 100.58594 
L 327.109405 96.424267 
M 328.394626 98.055374 
L 329.037236 95.450973 
L 329.679846 95.779879 
L 330.322457 98.914558 
L 330.965067 97.954689 
L 331.607678 94.027949 
L 332.250288 91.03423 
L 332.892898 93.705755 
L 333.535509 92.78616 
L 334.178119 93.32315 
L 334.820729 93.511097 
L 335.46334 96.820297 
L 336.10595 97.867428 
L 337.391171 85.147478 
L 338.033781 68.359828 
L 338.676392 56.962215 
L 339.319002 53.773837 
M 341.889443 59.533055 
L 342.532054 62.74157 
L 343.174664 58.747707 
L 343.817274 56.586322 
L 344.459885 50.424362 
M 347.030326 53.834249 
L 347.672937 47.350095 
L 348.315547 50.504911 
L 348.958157 50.370663 
L 349.600768 71.306561 
L 350.243378 67.769139 
L 350.885988 62.862393 
L 351.528599 74.065347 
L 352.171209 70.125183 
L 352.81382 57.975784 
L 353.45643 59.721002 
L 354.09904 47.014476 
L 354.741651 54.646446 
L 355.384261 64.251855 
L 356.026871 64.600898 
L 356.669482 62.251567 
L 357.312092 64.990216 
L 357.954702 91.114779 
L 358.597313 92.618351 
L 359.239923 94.430692 
L 359.882534 93.940689 
L 360.525144 96.639063 
L 361.167754 99.901277 
L 361.810365 102.445268 
M 363.095585 113.272328 
L 363.738196 111.533823 
L 364.380806 107.338589 
L 365.023417 109.003258 
L 365.666027 108.86901 
L 366.308637 107.170779 
L 366.951248 106.754612 
L 367.593858 116.655365 
L 368.236468 107.123793 
L 368.879079 106.311595 
L 369.521689 105.680632 
L 370.164299 107.560097 
L 370.80691 99.834154 
L 371.44952 100.169772 
L 372.092131 84.214457 
L 373.377351 75.193026 
L 374.019962 66.688447 
L 375.305182 78.515651 
L 375.947793 76.179745 
L 376.590403 84.241307 
L 377.233013 96.538378 
L 377.875624 92.524377 
L 378.518234 90.745598 
L 379.160845 91.517521 
L 380.446065 95.21604 
L 381.088676 91.833003 
L 381.731286 92.061224 
L 383.659117 112.507117 
L 384.301727 112.064101 
L 385.586948 112.359445 
L 386.229559 109.063669 
L 386.872169 106.378719 
L 387.514779 94.095073 
L 388.15739 101.881428 
L 388.8 106.096799 
L 388.8 106.096799 
" style="fill:none;stroke:#1f77b4;stroke-linecap:square;stroke-width:1.5;"/>
   </g>
   <g id="patch_3">
    <path d="M 54 252 
L 54 34.56 
" style="fill:none;stroke:#000000;stroke-linecap:square;stroke-linejoin:miter;stroke-width:0.8;"/>
   </g>
   <g id="patch_4">
    <path d="M 388.8 252 
L 388.8 34.56 
" style="fill:none;stroke:#000000;stroke-linecap:square;stroke-linejoin:miter;stroke-width:0.8;"/>
   </g>
   <g id="patch_5">
    <path d="M 54 252 
L 388.8 252 
" style="fill:none;stroke:#000000;stroke-linecap:square;stroke-linejoin:miter;stroke-width:0.8;"/>
   </g>
   <g id="patch_6">
    <path d="M 54 34.56 
L 388.8 34.56 
" style="fill:none;stroke:#000000;stroke-linecap:square;stroke-linejoin:miter;stroke-width:0.8;"/>
   </g>
  </g>
 </g>
 <defs>
  <clipPath id="p62ca4ad27d">
   <rect height="217.44" width="334.8" x="54" y="34.56"/>
  </clipPath>
 </defs>
</svg>
